<mxfile host="Electron" modified="2023-10-24T16:51:45.918Z" agent="Mozilla/5.0 (Windows NT 10.0; Win64; x64) AppleWebKit/537.36 (KHTML, like Gecko) draw.io/21.7.5 Chrome/114.0.5735.289 Electron/25.8.1 Safari/537.36" etag="PmDLdZrWpea7d6e-OX1w" version="21.7.5" type="device">
  <diagram name="Page-1" id="58cdce13-f638-feb5-8d6f-7d28b1aa9fa0">
    <mxGraphModel dx="1195" dy="588" grid="1" gridSize="10" guides="1" tooltips="1" connect="1" arrows="1" fold="1" page="1" pageScale="1" pageWidth="1100" pageHeight="850" background="none" math="0" shadow="0">
      <root>
        <mxCell id="0" />
        <mxCell id="1" parent="0" />
        <mxCell id="6K78RNccK_dpXYwtGaOm-43" style="edgeStyle=orthogonalEdgeStyle;rounded=0;orthogonalLoop=1;jettySize=auto;html=1;entryX=0;entryY=0.5;entryDx=0;entryDy=0;" edge="1" parent="1" source="6K78RNccK_dpXYwtGaOm-3" target="6K78RNccK_dpXYwtGaOm-7">
          <mxGeometry relative="1" as="geometry" />
        </mxCell>
        <mxCell id="6K78RNccK_dpXYwtGaOm-44" value="进入主函数" style="edgeLabel;html=1;align=center;verticalAlign=middle;resizable=0;points=[];" vertex="1" connectable="0" parent="6K78RNccK_dpXYwtGaOm-43">
          <mxGeometry x="-0.0891" y="-4" relative="1" as="geometry">
            <mxPoint x="-1" y="-14" as="offset" />
          </mxGeometry>
        </mxCell>
        <mxCell id="6K78RNccK_dpXYwtGaOm-3" value="" style="ellipse;whiteSpace=wrap;html=1;rounded=0;shadow=0;comic=0;labelBackgroundColor=none;strokeWidth=1;fillColor=#000000;fontFamily=Verdana;fontSize=12;align=center;" vertex="1" parent="1">
          <mxGeometry x="80" y="190" width="40" height="40" as="geometry" />
        </mxCell>
        <mxCell id="6K78RNccK_dpXYwtGaOm-29" style="edgeStyle=orthogonalEdgeStyle;rounded=0;orthogonalLoop=1;jettySize=auto;html=1;entryX=0.5;entryY=0;entryDx=0;entryDy=0;" edge="1" parent="1" source="6K78RNccK_dpXYwtGaOm-4" target="6K78RNccK_dpXYwtGaOm-5">
          <mxGeometry relative="1" as="geometry" />
        </mxCell>
        <mxCell id="6K78RNccK_dpXYwtGaOm-4" value="创建滚动条" style="rounded=1;whiteSpace=wrap;html=1;shadow=0;comic=0;labelBackgroundColor=none;strokeWidth=1;fontFamily=Verdana;fontSize=12;align=center;arcSize=50;" vertex="1" parent="1">
          <mxGeometry x="604" y="195" width="100" height="30" as="geometry" />
        </mxCell>
        <mxCell id="6K78RNccK_dpXYwtGaOm-33" style="edgeStyle=orthogonalEdgeStyle;rounded=0;orthogonalLoop=1;jettySize=auto;html=1;entryX=1;entryY=0.5;entryDx=0;entryDy=0;" edge="1" parent="1" source="6K78RNccK_dpXYwtGaOm-5" target="6K78RNccK_dpXYwtGaOm-32">
          <mxGeometry relative="1" as="geometry" />
        </mxCell>
        <mxCell id="6K78RNccK_dpXYwtGaOm-5" value="创建菜单栏" style="rounded=1;whiteSpace=wrap;html=1;shadow=0;comic=0;labelBackgroundColor=none;strokeWidth=1;fontFamily=Verdana;fontSize=12;align=center;arcSize=50;" vertex="1" parent="1">
          <mxGeometry x="604" y="270" width="100" height="30" as="geometry" />
        </mxCell>
        <mxCell id="6K78RNccK_dpXYwtGaOm-26" style="edgeStyle=orthogonalEdgeStyle;rounded=0;orthogonalLoop=1;jettySize=auto;html=1;entryX=0;entryY=0.5;entryDx=0;entryDy=0;" edge="1" parent="1" source="6K78RNccK_dpXYwtGaOm-6" target="6K78RNccK_dpXYwtGaOm-4">
          <mxGeometry relative="1" as="geometry" />
        </mxCell>
        <mxCell id="6K78RNccK_dpXYwtGaOm-49" value="确定当前文本区域" style="edgeLabel;html=1;align=center;verticalAlign=middle;resizable=0;points=[];" vertex="1" connectable="0" parent="6K78RNccK_dpXYwtGaOm-26">
          <mxGeometry x="-0.0528" relative="1" as="geometry">
            <mxPoint y="-15" as="offset" />
          </mxGeometry>
        </mxCell>
        <mxCell id="6K78RNccK_dpXYwtGaOm-6" value="创建富文本编辑器（文本框）" style="rounded=1;whiteSpace=wrap;html=1;shadow=0;comic=0;labelBackgroundColor=none;strokeWidth=1;fontFamily=Verdana;fontSize=12;align=center;arcSize=50;" vertex="1" parent="1">
          <mxGeometry x="383.75" y="187.5" width="120" height="45" as="geometry" />
        </mxCell>
        <mxCell id="6K78RNccK_dpXYwtGaOm-13" style="edgeStyle=orthogonalEdgeStyle;rounded=0;orthogonalLoop=1;jettySize=auto;html=1;entryX=0;entryY=0.5;entryDx=0;entryDy=0;" edge="1" parent="1" source="6K78RNccK_dpXYwtGaOm-7" target="6K78RNccK_dpXYwtGaOm-6">
          <mxGeometry relative="1" as="geometry" />
        </mxCell>
        <mxCell id="6K78RNccK_dpXYwtGaOm-7" value="创建窗口" style="rounded=1;whiteSpace=wrap;html=1;shadow=0;comic=0;labelBackgroundColor=none;strokeWidth=1;fontFamily=Verdana;fontSize=12;align=center;arcSize=50;" vertex="1" parent="1">
          <mxGeometry x="231.24" y="195" width="100" height="30" as="geometry" />
        </mxCell>
        <mxCell id="6K78RNccK_dpXYwtGaOm-31" style="edgeStyle=orthogonalEdgeStyle;rounded=0;orthogonalLoop=1;jettySize=auto;html=1;entryX=1;entryY=0.5;entryDx=0;entryDy=0;" edge="1" parent="1" source="6K78RNccK_dpXYwtGaOm-11" target="6K78RNccK_dpXYwtGaOm-17">
          <mxGeometry relative="1" as="geometry" />
        </mxCell>
        <mxCell id="6K78RNccK_dpXYwtGaOm-42" value="完成文字区域创建" style="edgeLabel;html=1;align=center;verticalAlign=middle;resizable=0;points=[];" vertex="1" connectable="0" parent="6K78RNccK_dpXYwtGaOm-31">
          <mxGeometry x="-0.0714" relative="1" as="geometry">
            <mxPoint y="-15" as="offset" />
          </mxGeometry>
        </mxCell>
        <mxCell id="6K78RNccK_dpXYwtGaOm-11" value="设置自动换行选项" style="rounded=1;whiteSpace=wrap;html=1;shadow=0;comic=0;labelBackgroundColor=none;strokeWidth=1;fontFamily=Verdana;fontSize=12;align=center;arcSize=50;" vertex="1" parent="1">
          <mxGeometry x="270" y="270" width="110" height="30" as="geometry" />
        </mxCell>
        <mxCell id="6K78RNccK_dpXYwtGaOm-17" value="" style="shape=mxgraph.bpmn.shape;html=1;verticalLabelPosition=bottom;labelBackgroundColor=#ffffff;verticalAlign=top;perimeter=ellipsePerimeter;outline=end;symbol=terminate;rounded=0;shadow=0;comic=0;strokeWidth=1;fontFamily=Verdana;fontSize=12;align=center;" vertex="1" parent="1">
          <mxGeometry x="80" y="265" width="40" height="40" as="geometry" />
        </mxCell>
        <mxCell id="6K78RNccK_dpXYwtGaOm-19" value="设置背景颜色&lt;br&gt;设置默认字体" style="shape=note;whiteSpace=wrap;html=1;rounded=0;shadow=0;comic=0;labelBackgroundColor=none;strokeWidth=1;fontFamily=Verdana;fontSize=12;align=center;size=20;" vertex="1" parent="1">
          <mxGeometry x="380" y="110" width="127.5" height="44" as="geometry" />
        </mxCell>
        <mxCell id="6K78RNccK_dpXYwtGaOm-20" style="edgeStyle=none;rounded=0;html=1;dashed=1;labelBackgroundColor=none;startArrow=none;startFill=0;startSize=5;endArrow=oval;endFill=0;endSize=5;jettySize=auto;orthogonalLoop=1;strokeWidth=1;fontFamily=Verdana;fontSize=12;exitX=0.5;exitY=1;exitDx=0;exitDy=0;exitPerimeter=0;entryX=0.5;entryY=0;entryDx=0;entryDy=0;" edge="1" parent="1" source="6K78RNccK_dpXYwtGaOm-19" target="6K78RNccK_dpXYwtGaOm-6">
          <mxGeometry relative="1" as="geometry">
            <mxPoint x="293.75" y="140" as="sourcePoint" />
            <mxPoint x="323.75" y="180" as="targetPoint" />
          </mxGeometry>
        </mxCell>
        <mxCell id="6K78RNccK_dpXYwtGaOm-22" style="edgeStyle=none;rounded=0;html=1;dashed=1;labelBackgroundColor=none;startArrow=none;startFill=0;startSize=5;endArrow=oval;endFill=0;endSize=5;jettySize=auto;orthogonalLoop=1;strokeWidth=1;fontFamily=Verdana;fontSize=12;exitX=0.5;exitY=1;exitDx=0;exitDy=0;exitPerimeter=0;entryX=0.5;entryY=0;entryDx=0;entryDy=0;" edge="1" parent="1" source="6K78RNccK_dpXYwtGaOm-23" target="6K78RNccK_dpXYwtGaOm-7">
          <mxGeometry relative="1" as="geometry">
            <mxPoint x="190" y="120" as="sourcePoint" />
            <mxPoint x="200" y="180" as="targetPoint" />
          </mxGeometry>
        </mxCell>
        <mxCell id="6K78RNccK_dpXYwtGaOm-23" value="设置窗口大小&lt;br&gt;设置窗口可见性&lt;br&gt;设置退出" style="shape=note;whiteSpace=wrap;html=1;rounded=0;shadow=0;comic=0;labelBackgroundColor=none;strokeWidth=1;fontFamily=Verdana;fontSize=12;align=center;size=20;" vertex="1" parent="1">
          <mxGeometry x="219.37" y="105" width="123.75" height="54" as="geometry" />
        </mxCell>
        <mxCell id="6K78RNccK_dpXYwtGaOm-34" style="edgeStyle=orthogonalEdgeStyle;rounded=0;orthogonalLoop=1;jettySize=auto;html=1;entryX=1;entryY=0.5;entryDx=0;entryDy=0;" edge="1" parent="1" source="6K78RNccK_dpXYwtGaOm-32" target="6K78RNccK_dpXYwtGaOm-11">
          <mxGeometry relative="1" as="geometry" />
        </mxCell>
        <mxCell id="6K78RNccK_dpXYwtGaOm-32" value="创建子菜单栏" style="rounded=1;whiteSpace=wrap;html=1;shadow=0;comic=0;labelBackgroundColor=none;strokeWidth=1;fontFamily=Verdana;fontSize=12;align=center;arcSize=50;" vertex="1" parent="1">
          <mxGeometry x="443.75" y="270" width="100" height="30" as="geometry" />
        </mxCell>
        <mxCell id="6K78RNccK_dpXYwtGaOm-38" value="设置横向滚轮&lt;br&gt;设置竖向滚轮&lt;br&gt;设置滚轮样式" style="shape=note;whiteSpace=wrap;html=1;rounded=0;shadow=0;comic=0;labelBackgroundColor=none;strokeWidth=1;fontFamily=Verdana;fontSize=12;align=center;size=20;" vertex="1" parent="1">
          <mxGeometry x="590" y="110" width="127.5" height="44" as="geometry" />
        </mxCell>
        <mxCell id="6K78RNccK_dpXYwtGaOm-39" style="edgeStyle=none;rounded=0;html=1;dashed=1;labelBackgroundColor=none;startArrow=none;startFill=0;startSize=5;endArrow=oval;endFill=0;endSize=5;jettySize=auto;orthogonalLoop=1;strokeWidth=1;fontFamily=Verdana;fontSize=12;exitX=0.5;exitY=1;exitDx=0;exitDy=0;exitPerimeter=0;entryX=0.5;entryY=0;entryDx=0;entryDy=0;" edge="1" parent="1" source="6K78RNccK_dpXYwtGaOm-38" target="6K78RNccK_dpXYwtGaOm-4">
          <mxGeometry relative="1" as="geometry">
            <mxPoint x="514" y="164" as="sourcePoint" />
            <mxPoint x="514" y="198" as="targetPoint" />
          </mxGeometry>
        </mxCell>
        <mxCell id="6K78RNccK_dpXYwtGaOm-45" value="确定子菜单栏形式" style="shape=note;whiteSpace=wrap;html=1;rounded=0;shadow=0;comic=0;labelBackgroundColor=none;strokeWidth=1;fontFamily=Verdana;fontSize=12;align=center;size=20;" vertex="1" parent="1">
          <mxGeometry x="411.56" y="340" width="164.38" height="30" as="geometry" />
        </mxCell>
        <mxCell id="6K78RNccK_dpXYwtGaOm-46" value="设置菜单栏样式" style="shape=note;whiteSpace=wrap;html=1;rounded=0;shadow=0;comic=0;labelBackgroundColor=none;strokeWidth=1;fontFamily=Verdana;fontSize=12;align=center;size=20;" vertex="1" parent="1">
          <mxGeometry x="590.25" y="340" width="127.5" height="30" as="geometry" />
        </mxCell>
        <mxCell id="6K78RNccK_dpXYwtGaOm-47" style="edgeStyle=none;rounded=0;html=1;dashed=1;labelBackgroundColor=none;startArrow=none;startFill=0;startSize=5;endArrow=oval;endFill=0;endSize=5;jettySize=auto;orthogonalLoop=1;strokeWidth=1;fontFamily=Verdana;fontSize=12;exitX=0.5;exitY=0;exitDx=0;exitDy=0;exitPerimeter=0;entryX=0.5;entryY=1;entryDx=0;entryDy=0;" edge="1" parent="1" source="6K78RNccK_dpXYwtGaOm-46" target="6K78RNccK_dpXYwtGaOm-5">
          <mxGeometry relative="1" as="geometry">
            <mxPoint x="664" y="164" as="sourcePoint" />
            <mxPoint x="664" y="205" as="targetPoint" />
          </mxGeometry>
        </mxCell>
        <mxCell id="6K78RNccK_dpXYwtGaOm-48" style="edgeStyle=none;rounded=0;html=1;dashed=1;labelBackgroundColor=none;startArrow=none;startFill=0;startSize=5;endArrow=oval;endFill=0;endSize=5;jettySize=auto;orthogonalLoop=1;strokeWidth=1;fontFamily=Verdana;fontSize=12;exitX=0.5;exitY=0;exitDx=0;exitDy=0;exitPerimeter=0;" edge="1" parent="1" source="6K78RNccK_dpXYwtGaOm-45">
          <mxGeometry relative="1" as="geometry">
            <mxPoint x="493.23" y="340" as="sourcePoint" />
            <mxPoint x="494" y="300" as="targetPoint" />
          </mxGeometry>
        </mxCell>
      </root>
    </mxGraphModel>
  </diagram>
</mxfile>
